<?xml version="1.0" encoding="utf-8"?><!--Generator: Adobe Illustrator 27.0.0, SVG Export Plug-In . SVG Version: 6.00 Build 0)--><svg version="1.1" id="Layer_1" xmlns="http://www.w3.org/2000/svg" xmlns:xlink="http://www.w3.org/1999/xlink" x="0px" y="0px" viewBox="0 0 1366 314.6" style="enable-background:new 0 0 1366 314.6" xml:space="preserve"><style type="text/css">.st0{fill:#0046BE;}
	.st1{fill:#313A4B;}</style><g><path class="st0" d="M277.3,157.4c0,48.7-0.1,97.5,0.1,146.2c0,6.1-1.6,7.9-7.8,7.9c-84.4-0.2-168.8-0.2-253.2,0
		c-5.7,0-7.7-1.4-7.7-7.4C8.9,206,8.9,107.9,8.8,9.8c0-5.3,1.4-7.6,7-6.4c2.5,0.5,5.3,0.2,7.9,0.2c81.8,0,163.5,0,245.3,0
		c8.3,0,8.3,0,8.3,8.1C277.3,60.3,277.3,108.9,277.3,157.4z M66.5,40.3c-1.8,0-3.7,0-5.5,0c-18.7,0.6-16.3-1.6-13.4,16.5
		c8.9,55.2,59.9,87.3,108.5,80.9c46.1-6.1,82.9-45.5,84.5-92.1c0.1-4.1-1.4-5.3-5.2-5.3c-8.1,0.1-16.2,0-24.3,0
		c-9.4,0-9.4,0-10.8,9.1c-4.1,26-26.5,47.1-51.7,48.5c-28.9,1.7-53.1-15.2-60.4-42.3c-1.4-5-1.2-12.2-4.4-14.5
		c-3.7-2.6-10.5-0.8-16-1C67.3,40.3,66.9,40.3,66.5,40.3z"/><g><path class="st1" d="M366,229.2V74.8h32v58.8h60V74.8h32v154.3h-32v-68.9h-60v68.9H366z"/><path class="st1" d="M553.1,159.7c5.6-0.7,9.5-1.6,11.9-2.6c4.3-1.8,6.4-4.6,6.4-8.5c0-4.7-1.6-7.9-4.9-9.7
			c-3.3-1.8-8.1-2.7-14.5-2.7c-7.1,0-12.2,1.7-15.2,5.2c-2.1,2.6-3.5,6.1-4.2,10.5h-28.8c0.6-10,3.4-18.2,8.4-24.6
			c7.9-10.1,21.5-15.1,40.8-15.1c12.5,0,23.7,2.5,33.4,7.4c9.7,5,14.6,14.3,14.6,28.1v52.4c0,3.6,0.1,8,0.2,13.2
			c0.2,3.9,0.8,6.6,1.8,8c1,1.4,2.4,2.5,4.4,3.5v4.4H575c-0.9-2.3-1.5-4.5-1.9-6.5c-0.4-2-0.6-4.3-0.8-6.9
			c-4.1,4.5-8.9,8.3-14.3,11.4c-6.5,3.7-13.8,5.5-21.9,5.5c-10.4,0-19-2.9-25.8-8.8c-6.8-5.9-10.2-14.3-10.2-25.1
			c0-14,5.5-24.2,16.3-30.5c6-3.4,14.8-5.9,26.4-7.3L553.1,159.7z M571.4,173.7c-1.9,1.2-3.8,2.1-5.8,2.9c-1.9,0.7-4.6,1.4-8,2
			l-6.8,1.3c-6.4,1.1-10.9,2.5-13.7,4.1c-4.7,2.7-7,6.9-7,12.7c0,5.1,1.4,8.8,4.3,11c2.9,2.3,6.4,3.4,10.5,3.4
			c6.5,0,12.5-1.9,18-5.7c5.5-3.8,8.3-10.6,8.6-20.6V173.7z"/><path class="st1" d="M712.5,127.3c9.3,9.8,14,24.3,14,43.3c0,20.1-4.5,35.4-13.6,46c-9.1,10.5-20.8,15.8-35.1,15.8
			c-9.1,0-16.7-2.3-22.8-6.8c-3.3-2.5-6.5-6.2-9.7-11v59.5h-29.5V115h28.6v16.9c3.2-5,6.7-8.9,10.3-11.7c6.7-5.1,14.6-7.6,23.8-7.6
			C691.8,112.5,703.1,117.4,712.5,127.3z M689.5,148.7c-4.1-6.8-10.6-10.2-19.7-10.2c-10.9,0-18.4,5.1-22.5,15.4
			c-2.1,5.4-3.2,12.4-3.2,20.7c0,13.3,3.6,22.6,10.7,28c4.2,3.1,9.2,4.7,15,4.7c8.4,0,14.8-3.2,19.2-9.6c4.4-6.4,6.6-15,6.6-25.7
			C695.6,163.3,693.6,155.5,689.5,148.7z"/><path class="st1" d="M832.7,127.3c9.3,9.8,14,24.3,14,43.3c0,20.1-4.5,35.4-13.6,46c-9.1,10.5-20.8,15.8-35.1,15.8
			c-9.1,0-16.7-2.3-22.8-6.8c-3.3-2.5-6.5-6.2-9.7-11v59.5h-29.5V115h28.6v16.9c3.2-5,6.7-8.9,10.3-11.7c6.7-5.1,14.6-7.6,23.8-7.6
			C812,112.5,823.4,117.4,832.7,127.3z M809.8,148.7c-4.1-6.8-10.6-10.2-19.7-10.2c-10.9,0-18.4,5.1-22.5,15.4
			c-2.1,5.4-3.2,12.4-3.2,20.7c0,13.3,3.6,22.6,10.7,28c4.2,3.1,9.2,4.7,15,4.7c8.4,0,14.8-3.2,19.2-9.6c4.4-6.4,6.6-15,6.6-25.7
			C815.9,163.3,813.9,155.5,809.8,148.7z"/><path class="st1" d="M861.5,251l3.8,0.2c2.9,0.1,5.7,0,8.4-0.3c2.7-0.4,4.9-1.2,6.7-2.4c1.7-1.2,3.4-3.7,4.9-7.4
			c1.5-3.8,2.1-6.1,1.9-6.9L845.2,115h33.2l24.9,84.2l23.6-84.2h31.7l-39.1,112.2c-7.6,21.6-13.5,35.1-17.9,40.3
			c-4.4,5.2-13.2,7.8-26.4,7.8c-2.7,0-4.8,0-6.4-0.1c-1.6,0-4-0.2-7.2-0.4V251z"/><path class="st1" d="M1058.4,78.2c10.8,3.6,19.6,10.1,26.3,19.6c5.4,7.7,9,16,11,24.9c2,8.9,2.9,17.5,2.9,25.5
			c0,20.5-4.1,37.9-12.4,52.1c-11.2,19.2-28.4,28.8-51.8,28.8H968V74.8h66.5C1044.1,75,1052,76.1,1058.4,78.2z M999.3,101.6v100.7
			h29.8c15.2,0,25.9-7.5,31.9-22.5c3.3-8.2,4.9-18,4.9-29.4c0-15.7-2.5-27.8-7.4-36.2c-4.9-8.4-14.7-12.6-29.4-12.6H999.3z"/><path class="st1" d="M1184.1,117.3c8,3.6,14.5,9.2,19.7,16.9c4.7,6.8,7.7,14.6,9.1,23.6c0.8,5.2,1.1,12.8,1,22.7h-83.1
			c0.5,11.4,4.4,19.5,11.9,24.1c4.6,2.9,10,4.3,16.5,4.3c6.8,0,12.3-1.7,16.6-5.2c2.3-1.9,4.4-4.5,6.1-7.9h30.5
			c-0.8,6.8-4.5,13.6-11.1,20.6c-10.2,11.1-24.5,16.6-42.9,16.6c-15.2,0-28.6-4.7-40.2-14c-11.6-9.4-17.4-24.6-17.4-45.7
			c0-19.8,5.2-34.9,15.7-45.5c10.5-10.5,24.1-15.8,40.8-15.8C1167.2,112,1176.1,113.8,1184.1,117.3z M1139.4,143.1
			c-4.2,4.3-6.9,10.2-7.9,17.7h51.4c-0.5-7.9-3.2-13.9-7.9-18c-4.8-4.1-10.7-6.2-17.7-6.2C1149.6,136.6,1143.6,138.8,1139.4,143.1z"/><path class="st1" d="M1292.6,117.3c8,3.6,14.5,9.2,19.7,16.9c4.7,6.8,7.7,14.6,9.1,23.6c0.8,5.2,1.1,12.8,1,22.7h-83.1
			c0.5,11.4,4.4,19.5,11.9,24.1c4.6,2.9,10,4.3,16.5,4.3c6.8,0,12.3-1.7,16.6-5.2c2.3-1.9,4.4-4.5,6.1-7.9h30.5
			c-0.8,6.8-4.5,13.6-11.1,20.6c-10.2,11.1-24.5,16.6-42.9,16.6c-15.2,0-28.6-4.7-40.2-14c-11.6-9.4-17.4-24.6-17.4-45.7
			c0-19.8,5.2-34.9,15.7-45.5c10.5-10.5,24.1-15.8,40.8-15.8C1275.7,112,1284.6,113.8,1292.6,117.3z M1248,143.1
			c-4.2,4.3-6.9,10.2-7.9,17.7h51.4c-0.5-7.9-3.2-13.9-7.9-18c-4.8-4.1-10.7-6.2-17.7-6.2C1258.1,136.6,1252.2,138.8,1248,143.1z"/><path class="st1" d="M1357.2,229.2h-29.8V74.8h29.8V229.2z"/></g></g></svg>
